<svg xmlns:xlink="http://www.w3.org/1999/xlink" xmlns="http://www.w3.org/2000/svg" class="icon" viewBox="0 0 24 24" focusable="false" width="26"  height="26" ><defs><symbol xmlns="http://www.w3.org/2000/svg" viewBox="0 0 24 24" id="social-instagram">
  <title>Instagram</title>
  <path d="M12 5c2.28 0 2.55 0 3.45.05.54 0 1.08.1 1.59.3.74.28 1.33.87 1.62 1.61.18.51.28 1.05.29 1.59.04.9.05 1.17.05 3.45 0 2.28 0 2.55-.05 3.45 0 .54-.1 1.08-.3 1.59a2.83 2.83 0 01-1.61 1.62c-.51.18-1.05.28-1.59.29-.9.04-1.17.05-3.45.05-2.28 0-2.55 0-3.45-.05-.54 0-1.08-.1-1.59-.3a2.83 2.83 0 01-1.62-1.61 4.72 4.72 0 01-.29-1.59C5.01 14.55 5 14.28 5 12c0-2.28 0-2.55.05-3.45 0-.54.1-1.08.3-1.59.28-.74.87-1.33 1.61-1.62.51-.18 1.05-.28 1.59-.29C9.45 5.01 9.72 5 12 5zm0-2c-2.44 0-2.75.01-3.71.05a6.6 6.6 0 00-2.19.42A4.6 4.6 0 003.47 6.1a6.6 6.6 0 00-.42 2.19C3.01 9.25 3 9.56 3 12s.01 2.75.05 3.71c.02.75.16 1.49.42 2.19a4.6 4.6 0 002.63 2.63c.7.26 1.44.4 2.19.42.96.04 1.27.05 3.71.05s2.75-.01 3.71-.05a6.6 6.6 0 002.19-.42 4.6 4.6 0 002.63-2.63c.26-.7.4-1.44.42-2.19.04-.96.05-1.27.05-3.71s-.01-2.75-.05-3.71a6.6 6.6 0 00-.42-2.19 4.6 4.6 0 00-2.63-2.63 6.6 6.6 0 00-2.19-.42C14.75 3.01 14.44 3 12 3zm0 5a4 4 0 100 8 4 4 0 000-8zm0 6a2 2 0 110-4 2 2 0 010 4zm4.5-7.5a1 1 0 100 2 1 1 0 000-2z"></path>
</symbol></defs><use xlink:href="#social-instagram" fill="#001135"></use></svg>