<svg xmlns:xlink="http://www.w3.org/1999/xlink" xmlns="http://www.w3.org/2000/svg" class="icon" viewBox="0 0 24 24" focusable="false" width="26"  height="26" ><defs><symbol xmlns="http://www.w3.org/2000/svg" viewBox="0 0 24 24" id="social-twitter">
  <title>Twitter</title>
  <path d="M9.03 18.5a9.28 9.28 0 009.34-9.34v-.42A6.69 6.69 0 0020 7.04c-.6.26-1.24.44-1.89.52a3.3 3.3 0 001.45-1.82c-.65.38-1.35.65-2.09.8a3.28 3.28 0 00-5.6 2.99A9.32 9.32 0 015.12 6.1a3.3 3.3 0 001.02 4.38 3.32 3.32 0 01-1.49-.4v.04c0 1.56 1.1 2.9 2.63 3.22a3.3 3.3 0 01-1.48.06 3.28 3.28 0 003.07 2.28A6.58 6.58 0 014 17.04a9.34 9.34 0 005.03 1.46"></path>
</symbol></defs><use xlink:href="#social-twitter" fill="#001135"></use></svg>