<svg xmlns:xlink="http://www.w3.org/1999/xlink" xmlns="http://www.w3.org/2000/svg" class="icon" viewBox="0 0 24 24" focusable="false" width="26"  height="26" ><defs><symbol xmlns="http://www.w3.org/2000/svg" viewBox="0 0 24 24" id="social-youtube">
    <title>YouTube</title>
    <path d="M20.62 7.64c-.2-.78-.81-1.4-1.59-1.6-1.4-.38-7.03-.38-7.03-.38s-5.63 0-7.03.38c-.78.2-1.39.82-1.6 1.6C3 9.05 3 12 3 12s0 2.95.38 4.36c.2.78.81 1.4 1.59 1.6 1.4.38 7.03.38 7.03.38s5.63 0 7.03-.38c.78-.2 1.39-.82 1.6-1.6C21 14.95 21 12 21 12s0-2.95-.38-4.36zM10 15V9l5 3-5 3z"></path>
</symbol></defs><use xlink:href="#social-youtube" fill="#001135"></use></svg>